<svg id="Layer_1" data-name="Layer 1" xmlns="http://www.w3.org/2000/svg" viewBox="0 0 700 500"><defs><style>.cls-1{fill:#a0a0a0;}.cls-2,.cls-3{fill:none;}.cls-3{stroke:#000;stroke-miterlimit:10;}.cls-4,.cls-8{font-size:14.76px;font-family:FoundationSans-Bold, Foundation Sans;font-weight:700;}.cls-4{letter-spacing:0.04em;}.cls-5{letter-spacing:0.06em;}.cls-6{letter-spacing:0.06em;}.cls-7{letter-spacing:0.06em;}.cls-8{letter-spacing:0.06em;}.cls-9{letter-spacing:0.06em;}</style></defs><title>hdryve 1</title><path class="cls-1" d="M395.85,92.18l-1-.43,1-.44Z"/><path class="cls-1" d="M315.53,211.39l4.89-.39-.07-.12-2.09,2.33-.06,0,1.73,6.76c-4.24-1.37-7,.58-9.85,2.4l-.08-.09,2-.53c.55-.16-.26.11.28-.08.1,0,0,0-.29.05l-2.39,3.66c-.43-.39.16,0-.31-.29-.12-.08-.05,0,.22.37l6.53-2.37.2.58-6.35,3.83,0,.35-.33,0,.32.11,0,.34c-3.46,2-3.36,4.17.78,7.93-3.95-.59-4.39-3.46-4-5.7.75-4.31-3.38-4.94-4.81-7.52-.67.52-2,1.17-1.9,1.55.95,4.75,2.14,9.43,6.52,12.38l0,.37a.62.62,0,0,1-.47.55l-.38,0-3.55-2.33c1.47,4.88,4.51,6.94,8.72,7.81-7.26,0-9.93-2.5-10.72-9.29l.23.22c.09.06.05,0-.13-.3-.71-4.15-1.38-8.31-2.17-12.44-.1-.5-.87-.87-1.33-1.3l.22.37-.31-.29,11.6-2.32h.42a6,6,0,0,0,.85-.06,1.76,1.76,0,0,0,.8-.26l.35-.23.25-.33,4.68-5.78Z"/><path class="cls-1" d="M318.09,165.49l.76,3.25-.11-.11-.53,3.54v0c-3.57,2.85-1.91,5.18.75,7.41v-.07l1.41,2.9.09-.08-4.75-2-.06,0,4.08,6.22-.14.49-.5.07-.37-.35c-3-2.58-5.69-5.33-6.05-9.57,0-.2.05-.4.08-.6.45-2.33-.26-4.6-.38-6.9a5,5,0,0,1-.16-.51q-.15-.49-.33-1l-.12-.51,1.75-3.5-.08.07c.73-1,1.79-1.94,2.15-3.08,1-3.24,1.64-6.59,2.57-9.85,2.34-8.27,4.77-16.52,7.16-24.78l-1.09-.48,1.34,2.54.08.06c-1,5.16-2.62,10.29-2.75,15.47-.15,6.34-.47,12.31-4.48,17.59-.64.84-.27,2.45-.37,3.7l-.35.21C317.59,165.68,317.72,165.64,318.09,165.49Z"/><path class="cls-1" d="M298.17,194.91a46.08,46.08,0,0,1-3.61,3.65,14.8,14.8,0,0,1-3.06,1.52l-.56-.42.57.4c-.09-2.79-.23-5.58-.26-8.38-.05-5.07,0-10.15,0-15.23-.55.16.2-.1-.35.1-.11,0,0,0,.37-.05,4,2.72,2.73,7.68,4.75,11.25a15.58,15.58,0,0,1,.8,2.17l-.09-.12c-.26,1.4-.61,2.8-.73,4.22a6.33,6.33,0,0,0,.53,2l1.67-1.1S298.17,194.92,298.17,194.91Z"/><path class="cls-1" d="M359.41,258.67l4.1,1.52-.09-.08-1.67,2.15,1.14.54-6.46.78.27,1.47,11.79-1.83.23,1.15c-2.86.38-5.71.8-8.57,1.15a44.46,44.46,0,0,0-9,1.62l4.37.38V268l-14,.79c1.76-1.68,3.41-3.93,4-3.69,7.17,3.11,10.31-2.16,14-6.34Z"/><path class="cls-1" d="M283.26,279.73l-3.8,3.21,22.44,1.68.08.73-38.29,1.46-.07-.9L277,284.8l.63-.06c3.55.43,7.12.42,10.69.5.57.19-.09.78.11.24-3.31-1-6.89.4-10.14-1.12l-.35-.53c-.1-3.77,3.07-3.3,5.28-4.07l.66-.09Z"/><path class="cls-1" d="M326.52,189.26l2.47,3.5.06.6c1.55,4-1.63,7.28-1.73,11l-.05.6-3.42,5.89-.3.08s-.15-.24-.15-.24-.1.27-.11.27l-.28-.11h-2.65l.06.12c3.39-3.87,4.59-8.36,4.45-13.49-.07-2.67.95-5.37,1.48-8Z"/><path class="cls-1" d="M276.54,219.19c-1.47,1.28-5.35,1.46-2.21,4.84l.11.51a2.94,2.94,0,0,1,0,1.53l-.06.51-1.74,10.71-1.1-.08c0-4,.36-8-.1-11.88C271,221.14,272.91,219.63,276.54,219.19Z"/><path class="cls-1" d="M283.26,279.76c6.22-.57,12.39-2.67,18.68-.55-6.25-.93-12.35,3.82-18.68.53Z"/><path class="cls-1" d="M313.55,227.52l4.38-1.74V233l.72-.4-.71.42-.53,2c-.43-.36-.88-.71-1.28-1.11-1.22-1.2-2.42-2.43-3.61-3.66-.08-.08-.12-.36-.07-.4a4.32,4.32,0,0,1,.61-.3c.52-.26-.19.18.29-.14.08-.06,0,0-.32.06l.51-1.22V228l0-.26Z"/><path class="cls-1" d="M273,84.87c.45.64,1.2,1.22,1.32,1.91.78,4.55,1.27,4.75,5.3,1.94l0,0c-.84,4.44-4.56,2.2-6.95,2.84-1.72.46-3.69-.11-5.54,0-4.86.2-4.86.24-3.42-4.87l-.27.28c-.09.1,0,0,.26-.29,2.86,4.61,6.54,5.33,9.39,1.85l-.12.08.13-3.74Z"/><path class="cls-1" d="M316.36,124l-.38,17.9,0,.15c-.43-2.05-1-4.09-1.27-6.16-.26-1.76-.23-3.57-.33-5.35l-4.49,2.28.08.07c1.13-1.22,2.34-2.39,3.36-3.7a27.94,27.94,0,0,0,1.93-3.26v-.37l.36-.07h-.37l-.06-.36,1.08-1.13-.18-.75Z"/><path class="cls-1" d="M304.83,144.23l2.71-3.88-4-1.77.07.08,3.49-2.74c-.54-.19.14.1-.39-.14-.12-.05,0,0,.41.08l.74.93,2.15-3.87-.08-.07c-.22,2.9-.08,5.9-.8,8.67-.36,1.38-2.29,2.36-3.5,3.52l-.45,0-.33-.32Z"/><path class="cls-1" d="M284.1,261.22l1.15-3.28.58.07c.16,2.83-.09,5.76.58,8.45.76,3.06-1,3.09-3.44,3.5l.83-3.74-.83-.12.84,0,.26-4.86Z"/><path class="cls-1" d="M236.11,109.14c-1-.87-2.73-1.65-2.84-2.62a105.27,105.27,0,0,1-.58-18.12c.63,7-.95,14.29,3.4,20.73C236,109.51,236.13,109.07,236.11,109.14Z"/><path class="cls-1" d="M300.93,197.42l1-1.73-.32-.2c-.11-.06,0,0,.25.29l-3.69-.87h0c3.18-.19,5-5.53,9.32-2.2l-6.61,4.66Z"/><path class="cls-1" d="M276.56,259.71l-1.84,5.74-.55,0,.6-13.61.75-.14,1.05,8-.39.71Z"/><path class="cls-1" d="M294.1,139.39c2.82-6.11-.09-8.55-5.36-10.24,1.36-.38,3.38-1.49,4-1a10.35,10.35,0,0,1,3.12,5c.44,1.81-.18,3.88-.33,5.83Z"/><path class="cls-1" d="M334.12,88.66c-.08.75.14,1.81-.28,2.2-1.79,1.68-3.76,3.17-5.67,4.72l.09.08c1.29-2.78.74-4.21-2.65-3.82-1.4.16-2.84,0-4,.75l12.6-3.82Z"/><path class="cls-1" d="M382,93.77l-3.08,1.34-.18-.26c-.05-.09,0,0,.23.22-.36-.85-1.26-2-1-2.48,1.67-2.74-.55-3.19-2.15-4.06l.13.14a21.94,21.94,0,0,0,2.27-.38c.87-.23,1.71-.58,2.57-.88a8.53,8.53,0,0,0-.88,2.42c-.06,1.61-2.91,5,2.1,3.82Z"/><path class="cls-1" d="M300.91,162.91c2.37-2.72,3.86,1.26,5.93.78-.3-.5,0,.24-.18-.3,0-.11,0,0,.29.21l1.69.24-.08,0c-5,1.48-1,4.73-1.17,6.76l-6.46-7.65-.07-.34Z"/><path class="cls-1" d="M281.6,155.39l2,5.73s0,0,0,0c-4-2.15-6.28-5-3.4-9.86l.26,2.51.06.41a1,1,0,0,0,.48.66A1.3,1.3,0,0,1,281.6,155.39Z"/><path class="cls-1" d="M326.35,189.46c-1.28,1.94-1.77-4.11-3.23-.32l.07-.08-2.73-6.77-.09.08,3.09,3,0,0,3.11,3.87Z"/><path class="cls-1" d="M287.78,171.63a5,5,0,0,0-.24.6c0,.06.14.16.21.25l.07-.07-4.23-11.29h0l3.75,5.6.08.33,0,.34-.12.32.4,4Z"/><path class="cls-1" d="M285,87.91c.57-.24,1.27-.81,1.68-.65,2.53,1,5,2.2,7.49,3.32l-.26-1.4L288,93.34l.2-.29-.19.29-2-5.22.13.09-1.17-.4Z"/><path class="cls-1" d="M352.24,72.13q-.56,6.75-1.12,13.49l-.42,0q.32-6.76.62-13.52Z"/><path class="cls-1" d="M239.52,88.22,236.58,98.8l-.39,0,2.06-10.87Z"/><path class="cls-1" d="M258.21,97.2c2,4.16,3-.76,4.6-.45.35.07.63.44.95.68l-.72.38.18,0-2.85,2.89-2.59-3.19Z"/><path class="cls-1" d="M357.19,96.23q-.81-5.4-1.61-10.81l1.59-.14v11Z"/><path class="cls-1" d="M343.91,247.55c3.7-1.09-.42-1.78-.14-2.7l.24-.23a17.45,17.45,0,0,0,2.43,2,14.41,14.41,0,0,0,2.67.88l-.1-.08-1.23,3.8.08.05-1-1.57,0,.06-2.81-2.31Z"/><path class="cls-1" d="M321.27,108.68c0,2.27,0,4.54-.13,6.79-.05.6-.85,1.14-1.3,1.71-.19-.57-.66-1.21-.53-1.7.59-2.26,1.36-4.47,2.06-6.71Z"/><path class="cls-1" d="M259.18,86.63l-2.1,8.17.09-.07-2.8-1.86.1.09C254,89.35,258,89,259.2,86.63,259.24,86.73,259.18,86.61,259.18,86.63Z"/><path class="cls-1" d="M383.84,111.16c-.19-2.74-.37-5.48-.58-8.58,3,2.8,1.28,5.66.44,8.44Z"/><path class="cls-1" d="M365.5,117.37l6.95,0h.43l.3.3.05.42c-1.29.16-2.58.27-3.86.51a20.27,20.27,0,0,0-2.38.71l.3-.22-.17.33-1.55-2.16Z"/><path class="cls-1" d="M293.37,93.49l10.86-1.82.13,1-11,.82-.59-.47Z"/><path class="cls-1" d="M329.34,250.36a25.49,25.49,0,0,1-3.82-1.38c-.34-.18-.19-1.28-.26-2l-.29.3c-.1.09,0,0,.27-.31l6.21,1.7-2.12,1.63.55-.4Z"/><path class="cls-1" d="M308.32,124.31c.26-2.81.52-5.63.78-8.48l2.17,6.25a2.2,2.2,0,0,0-.15-.26l.14.26-3,2.15Z"/><path class="cls-1" d="M365.57,117.29l-3.67-2-.79.15.79-.18c-.23-.89-.46-1.78-.95-3.7l4.55,5.84Z"/><path class="cls-1" d="M335.51,100.24a39.38,39.38,0,0,1,.89-4.89A3.12,3.12,0,0,1,339,93.27q-1.71,3.48-3.44,7l.24.26Z"/><path class="cls-1" d="M273.12,84.82c-.85-1-1.74-2.06-2.51-3.16-.16-.22.11-.75.18-1.14l.85.9.2-.28q.09-.15-.3.18l2.25-4.43c-.31,3.42-.52,5.69-.74,8Z"/><path class="cls-1" d="M234.12,83l.25-2.82.55-.49-.46.58a1.46,1.46,0,0,1-.74-.16l-.1-.09,1.54-3.57,1.83.81-2.93,5.68Z"/><path class="cls-1" d="M341.72,262.7c.77,4.21-3,2.12-4.46,3.22l.09.07c-.51-3.84,3.18-1.86,4.46-3.21Z"/><path class="cls-1" d="M241,108.33c-4.74.75-1.89-3.2-2.95-4.73Z"/><path class="cls-1" d="M363.51,260.19l9-2,.16,1.08q-4.62.45-9.26.87Z"/><path class="cls-1" d="M351.69,103.27c-.4-2.72-.81-5.43-1.22-8.15l1.1-.09v8.37Z"/><path class="cls-1" d="M312.53,152.05c-2.64-3.47-2.37-7-.29-10.6l-.23-.26c.08.08.15.17.23.26l.21,10.68Z"/><path class="cls-1" d="M242.37,117.4l6.4-1.54.29,1.18-5.88,1.13-.43,0-.32-.3Z"/><path class="cls-1" d="M243.18,118.17l-.39,2.09c.32-.48-.16.21.18-.26l-.17.27-4.21-5.1.38-.2-.37.22,3.77,2.21-.05-.13c.29.34.62.66,1,1Z"/><path class="cls-1" d="M267.08,114.65l-4.28,5.62a3.36,3.36,0,0,1-.24-.29c-.08-.09,0,0,.26.27l4.18-5.44Z"/><path class="cls-1" d="M306.57,196.1l4.77,1.3-.44,1.35L306.32,197Z"/><path class="cls-1" d="M286.48,110.53l1.54,8.94-1.45.14v-9.16Z"/><path class="cls-1" d="M320.39,246.3l-5.34.58.1-1.68,5.16,1.18Z"/><path class="cls-1" d="M284.54,136.64l-3.65-7.41.43-.54-.43.54,3.64,7.41-.32.65Z"/><path class="cls-1" d="M282.84,220.93v4.52l-1.7-.33,1.65-4.26.26-.16C283.15,220.65,283.08,220.73,282.84,220.93Z"/><path class="cls-1" d="M359.49,258.74v-8.36l1.28.07q-.67,4.11-1.36,8.22Z"/><path class="cls-1" d="M322.67,264.23l6-1.22.17.81-6,1.21Z"/><path class="cls-1" d="M320.71,88.29h-3.82v0h3.82Z"/><path class="cls-1" d="M324,101.72l4.27-6.06-.09-.08-4.31,6Z"/><path class="cls-1" d="M281.11,253q.63,4.41,1.28,8.82l.06-.1c-.31-1.43-.67-2.85-.9-4.29s-.38-3-.56-4.53c.45-.36-.25.05.26-.21C281.36,252.65,281.31,252.75,281.11,253Z"/><path class="cls-1" d="M280.89,129.23l-2.95-7.56-.08.07c4.85.94,3.64,4.34,3,7.49Z"/><path class="cls-1" d="M291.22,176.45c-2.54,1.51-3.35.57-3.41-4l-.07.07c1.18,1.33,2.34,2.67,3.5,4Z"/><path class="cls-1" d="M328.22,113.86v-4.45l3.08,2.24-.07-.41,0,.41-3.15,2.14Z"/><path class="cls-1" d="M286.42,96.31l-5.14,2.84,5.23-3Z"/><path class="cls-1" d="M285.47,155.62v4.54h-.26v-4.54Z"/><path class="cls-1" d="M284.31,140.43l2.07.2-.12-.09-3,4.61.12.12.94-4.84S284.31,140.43,284.31,140.43Z"/><path class="cls-1" d="M313.22,113.92,312,112l-.14.12,4.55,2.1,0,0-.86,1.87-.28.25c-.09.08,0,0,.26-.26l-2.39-2.16-.14.34C313.13,114.15,313.17,114,313.22,113.92Z"/><path class="cls-1" d="M311.71,88.43l-4.42.51-.12-.75,4.45-.38Z"/><path class="cls-1" d="M312.45,152.13l4.12-2.29c-.91,1.42-.88,4.42-4,2.2Z"/><path class="cls-1" d="M313.43,124.26l1.81.91,0-.08a.64.64,0,0,1,.22.64c-.06.22-.12.33-.19.33l.08-.1-4.79,2.37,3-4Z"/><path class="cls-1" d="M291.23,241.61c.27-2,.55-4,.82-6l1.14.31-2,5.63-.13.38Z"/><path class="cls-1" d="M299.18,143,297,147.61l-.83-.45,3-4.2Z"/><path class="cls-1" d="M285,106.76l-3.27-4.07.91-.68,2.28,4.82Z"/><path class="cls-1" d="M271.18,104l.73-2.42.5.11-.26,2.4Z"/><path class="cls-1" d="M248.21,121.33l5.67.67-.19.86-5.47-1.53-.57.41Z"/><path class="cls-1" d="M272.16,250.08l.93-6.48.8.15-1.68,6.17.35.19Z"/><path class="cls-1" d="M389.21,87.12l4-.23.08.76-3.93.32Z"/><path class="cls-1" d="M347.78,251.19l-5.48.58,0-1.11,5.51.57Z"/><path class="cls-1" d="M275.05,98.61l.19,3.64-.56,0-.17-3.47Z"/><path class="cls-1" d="M352.08,246.79l-3.07.6.1.08.33-2.05,2.54,1.42Z"/><path class="cls-1" d="M274.33,224l3.83-.23.26.63-3.13,1.22-.51-.07c-.51-.48-1-1-.28-1.66Z"/><path class="cls-1" d="M329.91,199.7l-2.64,5.3.12,0c-.81-2.35-.77-4.43,1.9-5.61Z"/><path class="cls-1" d="M333.54,265.93l-4.64,2.23-.36-1.08,5-1.13.65.33C334,266.15,333.76,266,333.54,265.93Z"/><path class="cls-1" d="M289.71,121.5q-.4,2.61-.82,5.22l-.93-.28c.6-1.64,1.19-3.27,1.79-4.9Z"/><path class="cls-1" d="M234.05,111.85l.12.37.39,0,.34-.12.2-.3a.57.57,0,0,1,.62-.28l.31.17.17.31,0,2.57-2.08-2.76Z"/><path class="cls-1" d="M313.34,191.68h-3.62l0-.42,3.47-.23Z"/><path class="cls-1" d="M352.21,106.58l1.52-.5,0-.17,1.78,2.34-.54.66-2.81-2.34C352.82,106,352.1,106.68,352.21,106.58Z"/><path class="cls-1" d="M300.09,109.18l4.92,0,.75.1-.76-.06Z"/><path class="cls-1" d="M229,97.54v2.35h-.2V97.36Z"/><path class="cls-1" d="M307.88,176.14l1.07,3.18c-.57-.4-1.44-.7-1.62-1.23s.33-1.29.54-2l.43-.67Z"/><path class="cls-1" d="M334.3,87.81l.29-2.32,1.4.25L335.12,87l0,.46-.32.32Z"/><path class="cls-1" d="M347.57,256.65l-.54-3.52,1.37.13-.94,3.5Z"/><path class="cls-1" d="M296,178.19c3.54,0,1,2,1.1,3.16l.09-.08-1.1-3.16Z"/><path class="cls-1" d="M298.08,128.9l1.38.08-1.37.24Z"/><path class="cls-1" d="M261,281.51l3.29-2.5v0l-3.3,2.53-.18-.29Z"/><path class="cls-1" d="M345.9,261.73l-4.16,1,.09.09q2-.54,4.08-1.05Z"/><path class="cls-1" d="M296.09,178.11l-.38-5.61.22.24-.23-.24c.1,1.9.21,3.79.31,5.69Z"/><path class="cls-1" d="M332.43,243.21l-3.14-2.85-.12.11,3.16,2.64Z"/><path class="cls-1" d="M299.76,89.14l.36.08-.73-.08Z"/><path class="cls-1" d="M288,93.34l5.42.15h0l-3,1.57,0,0L288,93.34Z"/><path class="cls-1" d="M279.78,236.62v-2.46l.42,0,.24,2.64Z"/><path class="cls-1" d="M254.37,92.87v4l-1-.17c.38-1.25.75-2.5,1.13-3.76Z"/><path class="cls-1" d="M313.05,196.63l2.13,1.08c-.47.1-1.07.42-1.37.24s-.51-.86-.75-1.32C313.06,196.6,313.06,196.63,313.05,196.63Z"/><path class="cls-1" d="M305.64,145l-.84,1.68-.28.08h-.29l-.29-.07-1.26-.38.21.22c.08.08,0,0-.21-.22l2.15-2.11-.09-.07c.32.34.64.67,1,1Z"/><path class="cls-1" d="M301.33,151.09l1.35-4.75h0l.06,3.34.12-.11L301.23,151Z"/><path class="cls-1" d="M329.88,194.66l0,5,.08,0c-1.73-1.32-.78-3-.64-4.6Z"/><path class="cls-1" d="M372.45,117.39a1.63,1.63,0,0,0,.15-.75l-.1.1,2.45-.13-.14-.14-1.58,1.65.15.14a14.17,14.17,0,0,0-1-1Z"/><path class="cls-1" d="M319.5,187.55l-.37,1.15-1.4-1.41,1-.57-.1-.07a1.91,1.91,0,0,0,.75.47Z"/><path class="cls-1" d="M297.42,184.56l1.55,2.28-.76.39-.72-2.75Z"/><path class="cls-1" d="M294.42,111.28l2.28-1.81.44.73-2.8,1Z"/><path class="cls-1" d="M312.67,177.15l-1.75-3.49.66-.22c2,.84,2.22,2.12,1,3.79Z"/><path class="cls-1" d="M310.92,173.66l0-4.26.75.35c1.49,1.7.89,2.95-.84,4Z"/><path class="cls-1" d="M327.87,115.85l1.34,2.72-.73.29-.49-3.15Z"/><path class="cls-1" d="M300.07,169.79l-.18-2,.85,0-.68,2.05-.4,0Z"/><path class="cls-1" d="M311,163.38l1.77-1.26.63,2.09.08-.07-2.57-.86Z"/><path class="cls-1" d="M300.62,154l-.45,3.11-.79-.3,1.36-2.67Z"/><path class="cls-1" d="M275.85,113.56v1.6h-.22v-1.6Z"/><path class="cls-1" d="M305.75,133.05a3.25,3.25,0,0,1,.67-.71c.09-.06.4.23.6.36l-.62.9Z"/><path class="cls-1" d="M347.46,256.76c1.09,1,2.57,1.92,0,2.88l.13.11,0-3.09Z"/><path class="cls-1" d="M274.72,246.84V245h.3v1.79Z"/><path class="cls-1" d="M229.92,92.26c-.42-.06-.83,0-.9-.14a4.24,4.24,0,0,1-.29-1.14c.18,0,.43,0,.52.16A10.33,10.33,0,0,1,229.92,92.26Z"/><path class="cls-1" d="M365.1,88l2.14-1,.38.8-2.48.07Z"/><path class="cls-1" d="M357.78,100.06l-.21.28a6,6,0,0,1-.41-.62c0-.06.12-.2.19-.31Z"/><path class="cls-1" d="M334.23,88.77c0-.32,0-.64.07-1l-.11.13c.38-.32.71-.7,1.06-1.06l-.13.11,2.09.16.15.66-3.24.85Z"/><path class="cls-1" d="M279.35,217.39l2.7-1.48.32.84-3.1.6Z"/><path class="cls-1" d="M368.72,92.13c0,.13-.05.26-.07.39-.1-.16-.28-.32-.28-.47a2.81,2.81,0,0,1,.23-.73Z"/><path class="cls-1" d="M280,93.29l1.17-3,1.33,1.41-2.61,1.44Z"/><path class="cls-1" d="M347.36,85a2.61,2.61,0,0,1-.85.09c-.17-.05-.29-.3-.43-.46a2.16,2.16,0,0,1,.7-.07C347,84.56,347.12,84.76,347.36,85Z"/><path class="cls-1" d="M304.41,127.23l-.21,2.28-.77-.15,1-2.11.41.11Z"/><path class="cls-1" d="M354.76,252.84l-2.92-1.37h0l2.82,1.43Z"/><path class="cls-1" d="M356,253.56c.23.35.46.7.66,1.07,0,0-.15.18-.23.28l-.32-1.46Z"/><path class="cls-1" d="M281.21,241.52l-.43.34a1,1,0,0,1-.08-.41,6.59,6.59,0,0,1,.3-.73Z"/><path class="cls-1" d="M313.54,228.3h-3.62l.12.12a.68.68,0,0,1-.23-.72c.09-.24.17-.35.25-.35l-.14.12,3.63.05-.14-.13c.66.34.66.69,0,1Z"/><path class="cls-1" d="M328.13,113.79c-.08.68-.16,1.37-.25,2.06a1.71,1.71,0,0,1,.11-.14l-1.12,1.13,1.35-3Z"/><path class="cls-1" d="M336.15,237.38l-1.53-.38c.12,0,.26,0,.38.05l1.2.35c-.27.51.13-.17-.17.32C336,237.83,336,237.71,336.15,237.38Z"/><path class="cls-1" d="M345,92.27l1.85-1,.16.53-2,.29.34.18Z"/><path class="cls-1" d="M343.13,93.49l-.72.4-.3-.59c.13-.06.28-.18.38-.15A3.07,3.07,0,0,1,343.13,93.49Z"/><path class="cls-1" d="M313.88,92h-1.73v-.44l1.73-.08Z"/><path class="cls-1" d="M274.5,239.81l-.78.58a5.46,5.46,0,0,1-.14-1.2c0-.21.27-.41.42-.62Z"/><path class="cls-1" d="M306.51,236.94l.61,1.84-1.44-.94-.07.08a9.82,9.82,0,0,0,1-1Z"/><path class="cls-1" d="M318.49,238.24l2.45.84-.24.41-2-1.22Z"/><path class="cls-1" d="M301.93,158.39c-.09,0-.23,0-.24,0a.87.87,0,0,1,0-.36,1.46,1.46,0,0,1,.16-.3Z"/><path class="cls-1" d="M312.24,141.45l.4-4.13-.08-.08c-.11,1.4-.21,2.8-.32,4.21Z"/><path class="cls-1" d="M333.54,107l-2.37,2.06.07.3c0,.1,0,0-.05-.3l2.46-2Z"/><path class="cls-1" d="M296.61,199.38l3.33-1-3.28.93.21.27C296.93,199.7,296.84,199.63,296.61,199.38Z"/><path class="cls-1" d="M264.3,279l1-3.37h0l-1,3.34Z"/><path class="cls-1" d="M280.17,206.24l3.28-.9h0l-3.28.9.21.23Z"/><path class="cls-1" d="M316.66,208.43l-.14.38.1-.79Z"/><path class="cls-1" d="M336.1,250l-1.84-.09v-.45h1.85Z"/><path class="cls-1" d="M311.15,187.17l1.89,2.69.45-.51-.34.58-2-2.76C311.39,186.33,311.22,187,311.15,187.17Z"/><path class="cls-1" d="M274,214.12l-1.62,2.39.32.57-.36-.54,1.76-2.34Z"/><path class="cls-1" d="M311.18,187.17l-.28-2.39.75,0c-.16.78-.33,1.57-.49,2.36Z"/><path class="cls-1" d="M236.09,109.13l.11,2.21-.12.41a1.69,1.69,0,0,0-.73.43l.15-.11a.64.64,0,0,1-1,0l.08.17c.52-1,1-2.07,1.54-3.1Z"/><path class="cls-1" d="M258.61,121c-.25.23-.37.42-.53.46a2.77,2.77,0,0,1-.76,0,2.94,2.94,0,0,1,.05-.5C257.74,121,258.1,121,258.61,121Z"/><path class="cls-1" d="M270.56,268.74l2.21-1.32-.09-.08-2.2,1.35Z"/><path class="cls-1" d="M259.2,86.63h0Z"/><path class="cls-1" d="M276.57,259.72l.12,2.27h-.23c0-.76.06-1.52.1-2.28Z"/><path class="cls-1" d="M351.84,251.47c0-.92.07-1.84.11-2.76l-.27.26c-.1.07-.05-.05.15-.35,0,.95,0,1.9,0,2.85Z"/><path class="cls-1" d="M332,250.77l1.59.37-.35.47-1.12-.93Z"/><path class="cls-1" d="M290,137.14l1.66-.73.12-.11-1.89.7Z"/><path class="cls-1" d="M326.16,125.81c-.18.94-.35,1.87-.52,2.81l-.08-.06.72-2.65Z"/><path class="cls-1" d="M286.19,253.36a2.27,2.27,0,0,1,.29.78c0,.23-.23.46-.36.69-.11-.24-.31-.49-.3-.73S286.05,253.63,286.19,253.36Z"/><path class="cls-1" d="M327.09,123.2c-.3.87-.61,1.75-.93,2.61l.13.1c.31-.86.62-1.73.94-2.59Z"/><path class="cls-1" d="M283.8,266.22l-2-.49,0-.12,2,.55S283.8,266.22,283.8,266.22Z"/><path class="cls-1" d="M337.26,265.92c-1.23,0-2.45,0-3.7,0,0,0,0,0,0,0,1.24,0,2.5,0,3.78,0Z"/><path class="cls-1" d="M327.23,123.32c.09-.53.19-1.07.06-.32.47-.56.14-.17-.19.21Z"/><path class="cls-1" d="M244.79,121.14l3.42.19h0l-3.34-.31Z"/><path class="cls-1" d="M314.83,120.18l.91-1a1.72,1.72,0,0,1,.17.32c-.35.25-.71.48-1.07.71l.28.32Z"/><path class="cls-1" d="M289.75,121.54l.85-2.8-.06,0c-.29.92-.57,1.84-.84,2.78Z"/><path class="cls-1" d="M287.22,275.67l-.31.08a2.94,2.94,0,0,1-.16-.6l.27-.08A5.27,5.27,0,0,1,287.22,275.67Z"/><path class="cls-1" d="M277.42,119.51a12.75,12.75,0,0,1-1.11-.76s.18-.38.29-.57l.73,1.43Z"/><path class="cls-1" d="M259.92,285.49l-.7-.33c.26-.2.49-.49.78-.56s.4.31.6.48Z"/><path class="cls-1" d="M311,194.21l-1.6.08v-.4l1.48.47Z"/><path class="cls-1" d="M319.41,194.22l-.47.3a4.71,4.71,0,0,1-.06-.74c0-.09.16-.16.25-.23Z"/><path class="cls-1" d="M305.36,200.7l.3.47c-.12.05-.26.17-.36.14a3.26,3.26,0,0,1-.62-.31Z"/><path class="cls-1" d="M275.38,213.62l1.23-1.51.23.34c-.5.37-1,.72-1.53,1.08Z"/><path class="cls-1" d="M272.41,216.51v1.74h-.17c0-.57.09-1.14.13-1.71Z"/><path class="cls-1" d="M297.49,184.48l-.3-3.2-.09.08q.18,1.57.33,3.18S297.49,184.48,297.49,184.48Z"/><path class="cls-1" d="M308.24,218l2.67-.87-.12-.12c.68.33.68.67,0,1l.14-.13a2,2,0,0,1-2.74,0Z"/><path class="cls-1" d="M319,179.54l-.12-2h.41c-.11.63-.22,1.27-.31,1.93A.84.84,0,0,1,319,179.54Z"/><path class="cls-1" d="M318.21,172.17l.23,2.23h-.51c.09-.75.19-1.5.29-2.26Z"/><path class="cls-1" d="M307.87,176.13l-.23-2.25h.41c-.06.76-.11,1.51-.17,2.27Z"/><path class="cls-1" d="M315.24,221.47c-1.06.08-2.12.17-3.21.24l0,0c1.09-.06,2.2-.1,3.31-.14Z"/><path class="cls-1" d="M292.62,223.28l-.88.63c-.17-.26-.52-.68-.46-.75a4.63,4.63,0,0,1,1-.72Z"/><path class="cls-1" d="M289.35,171.86l.63.92-.56.05.07-1.1Z"/><path class="cls-1" d="M279.6,227.62l-.18.73c-.18-.2-.45-.38-.5-.61s.18-.44.28-.66C279.34,227.26,279.47,227.43,279.6,227.62Z"/><path class="cls-1" d="M291.38,227.9l-1.86.12v-.71l1.86.58C291.37,228,291.38,227.88,291.38,227.9Z"/><path class="cls-1" d="M314.89,236.91l-.62-.39c.22-.1.44-.29.66-.28s.41.22.62.35Z"/><path class="cls-1" d="M300.64,161.31c-.34-.26-.69-.52-1-.81A2.87,2.87,0,0,1,300,160l.54,1.43Z"/><path class="cls-1" d="M302.67,152.57c.11.27.3.52.28.75s-.23.44-.36.66a1.89,1.89,0,0,1-.27-.71C302.33,153,302.54,152.82,302.67,152.57Z"/><path class="cls-1" d="M325.19,238.31c-.27.12-.51.32-.74.31a2.06,2.06,0,0,1-.71-.33c.24-.11.47-.31.71-.31S324.92,238.18,325.19,238.31Z"/><path class="cls-1" d="M301.23,151c-.21,1-.42,2-.62,3l.12.14c.21-1,.41-2,.61-3Z"/><path class="cls-1" d="M291.19,241.59l.52,1.82-.45.07c0-.61,0-1.23,0-1.86Z"/><path class="cls-1" d="M311.57,245.7l.65.41c-.21.11-.42.32-.62.31s-.37-.24-.56-.37Z"/><path class="cls-1" d="M291.61,141l-.3.67c-.06-.12-.2-.25-.18-.35a4.81,4.81,0,0,1,.27-.68Z"/><path class="cls-1" d="M284.32,140.43c.07-1.27.15-2.53.22-3.79h0c-.07,1.26-.15,2.52-.22,3.79Z"/><path class="cls-1" d="M291.68,136.41h.93l-.12-.12-.11,1.63c-.2-.54-.39-1.08-.58-1.62Z"/><path class="cls-1" d="M313.35,117.77c-.05-1.28-.1-2.56-.14-3.85h0l.09,3.71c.56-.12-.29-.06.28-.06C313.67,117.57,313.6,117.63,313.35,117.77Z"/><path class="cls-1" d="M279.66,88.72l1.07-.55.33,1-1.42-.48Z"/><path class="cls-1" d="M284.88,87.81l-1.72.8L283,88l2-.09Z"/><path class="cls-1" d="M352.1,103.45c0,1,.07,2.09.11,3.13h0l-.51-3.3-.12.13a.57.57,0,0,0,.61-.05Z"/><path class="cls-1" d="M275.44,108.12l-.91-1.83.59-.17.2,1.9Z"/><path class="cls-1" d="M322.27,106.22l-1,2.46.1.09,1-2.44Z"/><path class="cls-1" d="M275.44,93.07l2.26.1.13-.13L275.34,93Z"/><path class="cls-1" d="M376.42,86.12l1.63-1.33h-.42l.42,0-1.72,1.35Z"/><path class="cls-1" d="M340.32,84.34l-1.44,0,.3-.67,1,.72Z"/><path class="cls-1" d="M322.73,103.25c-.16,1-.31,2-.46,3l.11.11.48-3Z"/><path class="cls-1" d="M234.06,82.9l.41,2.13h-.6c.1-.67.2-1.35.27-2.05Z"/><path class="cls-1" d="M368.58,82.16l.32,1.71-.57,0,.25-1.73.36.2Z"/><path class="cls-1" d="M240.67,110.44c.09-.7.19-1.41.28-2.11h0l-.36,2Z"/><path class="cls-1" d="M335.51,100.24c-.14,1.05-.27,2.11-.41,3.17l.08.07.33-3.24Z"/><path class="cls-1" d="M357.52,80.9c-.07.25-.14.49-.22.73a3.32,3.32,0,0,1-.33-.53c0-.1,0-.25,0-.37Z"/><path class="cls-1" d="M363.33,102.43c-.05-.1-.14-.2-.14-.3s.09-.2.14-.31c.05.1.14.2.14.3S363.38,102.32,363.33,102.43Z"/><path class="cls-1" d="M257.78,97.56c-.21-1-.41-1.89-.62-2.83l-.08.07,1.13,2.4Z"/><path class="cls-1" d="M370.7,97.76l.39-.05-.31,0Z"/><path class="cls-1" d="M279.27,217.35l-2.51.18.1.12c.82-.09,1.64-.19,2.47-.27Z"/><path class="cls-1" d="M308,206.25l2.2-.15-.11-.12-2.11.23Z"/><path class="cls-1" d="M334.3,105.18l.88-1.7-.08-.07c-.3.56-.59,1.13-.89,1.7Z"/><path class="cls-1" d="M303.49,209.44l.66-.83-.78.75Z"/><path class="cls-1" d="M289.44,215.09l-1.11,1-.08,0,1.2-1.07.67.16Z"/><path class="cls-1" d="M277.49,208.94l.08.89-.07-.89.24.3Z"/><path class="cls-1" d="M291.24,214.22l-1.8.87v0l1.82-.92.79.29Z"/><path class="cls-1" d="M322.86,103.37l1.13-1.64-.13-.12-1.13,1.65A1.27,1.27,0,0,1,322.86,103.37Z"/><path class="cls-1" d="M303.37,209.36l-2.25.42.11.13,2.25-.48Z"/><path class="cls-1" d="M299.11,212.32l1.66-.92,0,0-1.71.85Z"/><path class="cls-1" d="M323.85,210.89l-.41,1.06-.43-1.06-.09.16a.65.65,0,0,1,1,0Z"/><path class="cls-1" d="M291.27,214.14l.83.1-.11-.38c-.25.12-.5.25-.75.36Z"/><path class="cls-1" d="M295.66,213.07l-.13.27-.21-.38Z"/><path class="cls-1" d="M299,212.21l-1.1.18,0-.37,1.13.28Z"/><path class="cls-1" d="M229.83,104a.86.86,0,0,1,.11.33c0,.09-.13.17-.2.26,0-.11-.13-.22-.11-.33S229.76,104,229.83,104Z"/><path class="cls-1" d="M290.81,168.25l-.3-.24c.12,0,.25-.15.37-.13s.2.14.31.22Z"/><path class="cls-1" d="M310.9,169.4c.29-.59.57-1.18.86-1.76l-.07-.06c.72,1.08.74,1.82-.87,1.74Z"/><path class="cls-1" d="M331.17,109.1c0,.85.07,1.7.11,2.55h0c0-.85-.07-1.7-.11-2.55Z"/><path class="cls-1" d="M310.29,110l-.48-.27-.07.32.54,0Z"/><path class="cls-1" d="M300.08,109.18l.16,1h-.37c.07-.32.15-.65.22-1Z"/><path class="cls-1" d="M232.7,111.21,231.62,110l.32-.67-.23.71.84,1.34Z"/><path class="cls-1" d="M305,109.15l1,0h-1Z"/><path class="cls-1" d="M286.57,110.45l-1.28-1.33h0l1.19,1.41Z"/><path class="cls-1" d="M323.12,189.14l.46,1.09-.39-1.16Z"/><path class="cls-1" d="M231.62,110l.42-.48-.62-.13c.1.22.2.43.29.65Z"/><path class="cls-1" d="M285.29,109.12c-.1-.78-.21-1.57-.31-2.35l-.08.07.39,2.28Z"/><path class="cls-1" d="M329,192.76c.3.63.59,1.27.89,1.9l.12-.17c-1.7.07-1.45-.79-.88-1.81Z"/><path class="cls-1" d="M365.51,108.09l.62-.87c-.22,0-.54-.23-.65-.14a3.15,3.15,0,0,0-.6.83.49.49,0,0,0,.24.18,1.23,1.23,0,0,0,.38-.13Z"/><path class="cls-1" d="M310.86,194.36l2.18.58,0,.41,0-.42c-.69-.23-1.39-.47-2.08-.72A1.58,1.58,0,0,1,310.86,194.36Z"/><path class="cls-1" d="M333.65,107.14c.22-.65.43-1.31.65-2l-.09-.07c-.23.64-.46,1.28-.68,1.93Z"/><path class="cls-1" d="M291.5,200.08l-2.24.41.13.12,2.12-.55Z"/><path class="cls-1" d="M308.66,200c0,.1,0,.25-.05.28a1.06,1.06,0,0,1-.37.07l.07-.47Z"/><path class="cls-1" d="M313.48,200.25l-.39,0,.28.14Z"/><path class="cls-1" d="M286.58,202.21l2-.39,0,0-2.12.3Z"/><path class="cls-1" d="M283.86,203.81l2.18-.28h0l-2.28.15Z"/><path class="cls-1" d="M354.78,247.08l.4,1-.42,0,0-1-.25.27C354.46,247.45,354.54,247.36,354.78,247.08Z"/><polygon class="cls-1" points="280.92 249.51 280.85 249.22 281.07 249.26 280.92 249.51"/><path class="cls-1" d="M352,248.71l-.84.55.21.24.51-.87Z"/><path class="cls-1" d="M273.11,88.48l-1-.29.1-.35c.24.25.48.5.74.73Z"/><path class="cls-1" d="M229.86,87.88c-.08,0-.23-.06-.24-.1a1,1,0,0,1,.08-.33c.09,0,.26.06.26.09A1.33,1.33,0,0,1,229.86,87.88Z"/><path class="cls-1" d="M332.08,250.68l-2.74-.32h0l2.62.43Z"/><polygon class="cls-1" points="339.39 250.28 339.72 250.44 339.36 250.55 339.39 250.28"/><path class="cls-1" d="M281,252.92l.74-.34-.52-.32c0,.26,0,.51-.09.76Z"/><path class="cls-1" d="M343.12,83.92a3.67,3.67,0,0,1-.66.27c-.06,0-.17-.16-.26-.25a4,4,0,0,1,.64-.28C342.9,83.65,343,83.82,343.12,83.92Z"/><path class="cls-1" d="M271.52,84l.12.36-.48.09a1.17,1.17,0,0,1,.07-.38C271.26,84,271.42,84,271.52,84Z"/><path class="cls-1" d="M283.11,262.43l-.31,1c-.12-.55-.25-1.1-.36-1.66l-.06.1c.23.21.45.43.67.65Z"/><path class="cls-1" d="M232.19,83.18l-.41,0,.16.26.19-.24C231.88,82.7,231.91,82.72,232.19,83.18Z"/><path class="cls-1" d="M348.58,264.17l.38-.12.1.5a1.24,1.24,0,0,1-.4-.07C348.6,264.44,348.61,264.28,348.58,264.17Z"/><path class="cls-1" d="M232.56,80.81c-.13.79-.25,1.58-.37,2.37l-.06,0,.57-2.27Z"/><path class="cls-1" d="M326.58,267.75c0,.09,0,.23,0,.26a1.13,1.13,0,0,1-.34.11l0-.47Z"/><path class="cls-1" d="M269.35,271.75c.14-.71.28-1.42.43-2.13.07.72.15,1.45.23,2.17l-.18.26-.32,0Z"/><path class="cls-1" d="M270,272.48l-.84,1.7-.41-.24a1.31,1.31,0,0,1-.18-.91,2.13,2.13,0,0,1,.59-.74l.46-.11Z"/><path class="cls-1" d="M282,272.62l-.91,1.09.24.34c.07.11,0,0-.3-.28l1-1.13Z"/><path class="cls-1" d="M266.75,275.22l.79-1.7.43.24a1.33,1.33,0,0,1,.19.93,2.28,2.28,0,0,1-.58.79l-.49.09Z"/><path class="cls-1" d="M261,281.51l-2.5.23h0l2.51-.24Z"/><path class="cls-1" d="M305,284.28c-.09.08-.2.24-.27.22a3.66,3.66,0,0,1-.59-.24,3.42,3.42,0,0,1,.61-.22C304.81,284,304.91,284.2,305,284.28Z"/><path class="cls-1" d="M284,218.6l1.85-.31-.18-.33.29.24-2.07.28Z"/><path class="cls-1" d="M315.36,221.6c.25-.33.49-.66.75-1a2.89,2.89,0,0,1,.31.22l-1.18.61Z"/><path class="cls-1" d="M288.7,95.23l.27,1-.27-1h0Z"/><path class="cls-1" d="M369.62,96.39l-.11.09Z"/><path class="cls-1" d="M291.37,227.89l.86,2.05-.41.09.33-.26-1.7-.15.17.4-.15-.39.91-1.73Z"/><path class="cls-1" d="M291.64,232.79l-.29.27a4.43,4.43,0,0,1-.26-.69c0-.07.18-.17.28-.26Z"/><path class="cls-1" d="M279.89,93.19,277.83,93l-.13.13,2.29.11Z"/><path class="cls-1" d="M320.73,233h-2.79v0l2.76,0c-.3-.49.09.22-.18-.29C320.46,232.67,320.53,232.76,320.73,233Z"/><path class="cls-1" d="M375.85,88.53l-1,.85-.3-1h0l1.45.32Z"/><path class="cls-1" d="M285.76,90.5c.11-.76.22-1.51.31-2.28l-.13-.08c-.1.74-.18,1.51-.26,2.27Z"/><path class="cls-1" d="M341,243.54l2.29,0,.08-.07-2.41,0,.12-.34C341.12,243.08,341.09,243.2,341,243.54Z"/><path class="cls-1" d="M325.26,247l-1.31,0,1.29-.05Z"/><path class="cls-1" d="M340.55,246.17l.27.7h-.51l.25-.72.59.45Z"/><path class="cls-1" d="M342.6,246.15c.43.47.87.93,1.31,1.4,0,0,.13-.14.14-.13l-1.43-1.25a3.85,3.85,0,0,1-.27.3C342.25,246.57,342.34,246.46,342.6,246.15Z"/><path class="cls-1" d="M352,246.84l2.8.24h0l-2.7-.32Z"/><path class="cls-1" d="M317.28,115.36a7,7,0,0,1,.23.74c0,.05-.12.13-.18.2l0-1Z"/><path class="cls-1" d="M290.46,116l1.19-.14-1.21.14c.09.58-.06-.26.05.31C290.51,116.43,290.5,116.33,290.46,116Z"/><path class="cls-1" d="M248.81,119.51c-.11.1-.24.27-.31.25a4.17,4.17,0,0,1-.65-.29c.1-.09.21-.27.28-.25A5,5,0,0,1,248.81,119.51Z"/><path class="cls-1" d="M311.88,120.86l0-.77.47.28-.6.4Z"/><path class="cls-1" d="M383.23,113.32c.2-.72.41-1.44.61-2.16a1.85,1.85,0,0,1-.14-.14l-.48,2.31C382.94,112.94,383.28,113.4,383.23,113.32Z"/><path class="cls-1" d="M242.79,120.26l2,.88a1,1,0,0,0,.09-.13l-2.08-.74Z"/><path class="cls-1" d="M262.8,120.27l-1.2.25c.14-.11.27-.29.42-.32a4.35,4.35,0,0,1,.8,0Z"/><path class="cls-1" d="M302.74,149.68l1,.15-.18.61c-.22-.3-.44-.59-.67-.88Z"/><path class="cls-1" d="M281.47,147.88l-.35.35.32.09-.07-.34Z"/><path class="cls-1" d="M304.8,146.72l-.45,1.11-.41-1.11-.08.12a.65.65,0,0,1,1,0Z"/><path class="cls-1" d="M277.33,119.61c.17.71.35,1.42.53,2.13l.08-.07c-.18-.71-.36-1.42-.53-2.15Z"/><path class="cls-1" d="M269.07,117.16l.57-.84c.09.1.27.24.25.29-.14.3-.32.59-.48.89Z"/><path class="cls-1" d="M314.84,120.17l-1,1.85c.21.54-.09-.24.12.3,0,.1,0,0-.1-.3l.95-1.84Z"/><path class="cls-1" d="M359.24,115.15l2.66.09v0l-2.68-.14c.41-.41-.22.18.21-.21C359.51,114.84,359.44,114.92,359.24,115.15Z"/><path class="cls-1" d="M316.32,124l.31-2.56-.08,0c-.06.87-.13,1.73-.19,2.6Z"/><path class="cls-1" d="M313.52,124.33l.36-2.31h0c-.14.74-.28,1.49-.43,2.24Z"/><path class="cls-1" d="M238.35,112.73c.08.82.17,1.64.25,2.46v0c-.06-.82-.12-1.65-.19-2.48Z"/><path class="cls-1" d="M304.41,127.25l1.16-.15-.13.56-1-.43Z"/><path class="cls-1" d="M292.4,112.87l0,1-.37-.08.44-.84Z"/><path class="cls-1" d="M308,129.87a2.91,2.91,0,0,1-.48.41c-.08,0-.34-.07-.34-.12a2.28,2.28,0,0,1,.1-.57Z"/><path class="cls-1" d="M290.44,116c0,.89.05,1.77.08,2.67l.07,0c0-.91-.08-1.81-.12-2.72Z"/><path class="cls-1" d="M287.33,166.72l.76.33-.76.66.15.06a.78.78,0,0,1-.24-.74c.07-.25.14-.38.21-.38Z"/><path class="cls-1" d="M308.64,163.84l2.39-.46-.09-.11c-.78.19-1.56.37-2.36.54Z"/><path class="cls-1" d="M319.19,166.38c-.16.75-.31,1.49-.45,2.24a.57.57,0,0,0,.11.11c.12-.77.23-1.56.34-2.35Z"/><path class="cls-1" d="M343.29,243.57l.72,1.05-.24.23c-.14-.44-.28-.89-.41-1.34Z"/><path class="cls-1" d="M336.49,245l.23.25c-.08.08-.17.21-.25.21s-.16-.15-.23-.24Z"/><path class="cls-1" d="M308.24,124.23l-.35.69.43-.61Z"/><path class="cls-1" d="M377.21,114.75l.78-.82.08-.16-1,.92Z"/><path class="cls-1" d="M338.44,246.12c-.08.08-.18.21-.26.2s-.14-.15-.22-.24c.09-.07.18-.2.26-.19S338.37,246,338.44,246.12Z"/><path class="cls-1" d="M342.62,246.17h0Z"/><path class="cls-1" d="M321.25,247.4c-.29-.36-.57-.73-.86-1.1l-.08.09.83,1Z"/><path class="cls-1" d="M339.28,88.3c-.09.07-.19.21-.27.21s-.16-.16-.24-.25c.09-.08.19-.22.27-.21S339.2,88.21,339.28,88.3Z"/><path class="cls-1" d="M354.89,70.68l-.07.17.15-.08.44-.55Z"/><path class="cls-1" d="M317.37,115.3l-.9-1.07,0,0c.27.37.53.75.81,1.12Z"/><path class="cls-1" d="M267.92,281.79l-.26.22h.49l-.21-.21Z"/><path class="cls-1" d="M376,115.46c.4-.24.8-.48,1.21-.71l-.1-.07-1.24.64Z"/><path class="cls-1" d="M272.21,249.92l.2.26a1.33,1.33,0,0,0-.24-.11A1.13,1.13,0,0,1,272.21,249.92Z"/><path class="cls-1" d="M375,86.88c.46-.26.92-.51,1.4-.76h-.1c-.39.25-.81.49-1.23.73Z"/><path class="cls-1" d="M371.55,115.28l.31-.59-.67,0c-.54.21.26,0-.3.12-.11,0,0,0,.26-.2l.29.83Z"/><path class="cls-1" d="M346.83,249.67l-.73-.15.75.19Z"/><path class="cls-1" d="M311.78,120.77c-.18.43-.35.87-.52,1.31h0c.2-.41.4-.82.61-1.22Z"/><path class="cls-1" d="M316.63,121.48l.57,0h-.64Z"/><path class="cls-1" d="M374.3,87.8l1,0-.3-1s.07,0,.07,0l-.95.83Z"/><path class="cls-1" d="M321.14,247.35l.27.16-.16-.11Z"/><path class="cls-1" d="M277,284.8c.32-.32.63-.64.94-1l-.11-.07c.32.94.09,1.31-.92.89Z"/><polygon class="cls-1" points="320.69 233.06 320.71 232.81 320.73 233.04 320.69 233.06"/><path class="cls-1" d="M378,113.93l-.13-.26.2.11S378,113.93,378,113.93Z"/><path class="cls-1" d="M383.22,113.33l-.59-.06.6,0Z"/><path class="cls-1" d="M275.34,93l-.33.37c0-.07.05-.16.11-.19a1.07,1.07,0,0,1,.32-.07Z"/><path class="cls-1" d="M345.05,92.11l.23.25a1.39,1.39,0,0,0-.26-.1A1,1,0,0,1,345.05,92.11Z"/><path class="cls-1" d="M267,114.81l-.14-.28a1.2,1.2,0,0,0,.21.13S267,114.81,267,114.81Z"/><polygon class="cls-1" points="270.49 114.46 270.42 114.2 270.65 114.24 270.49 114.46"/><path class="cls-1" d="M318.67,238.27l0,.26-.2-.28Z"/><path class="cls-1" d="M285.68,90.41l-.31.66.39-.57Z"/><path class="cls-1" d="M356.25,69.52l.09-.26-.17.17-.5.51Z"/><path class="cls-1" d="M336.82,238.48l-.67-1.1.05,0,.54,1.18Z"/><path class="cls-1" d="M327.16,239.18c-.09.07-.18.2-.26.2s-.15-.15-.23-.24c.09-.07.18-.21.26-.2S327.08,239.09,327.16,239.18Z"/><path class="cls-1" d="M355,70.77l1.27-1.24s-.08-.09-.08-.09l-1.27,1.24Z"/><path class="cls-1" d="M336.74,238.58l1.27.65,0-.07c-.4-.23-.8-.46-1.21-.68A.81.81,0,0,0,336.74,238.58Z"/><path class="cls-1" d="M358.75,113.94c.17.4.33.8.49,1.21l0,0-.36-1.26Z"/><path class="cls-1" d="M329.29,240.36l-.74-.11.62.22Z"/><path class="cls-1" d="M338,239.23l.56,1.11.1-.12c-.21-.35-.42-.69-.63-1.05Z"/><path class="cls-1" d="M339.73,241l-1.06-.74-.1.12,1.08.72Z"/><path class="cls-1" d="M340,242.27c-.09-.42-.18-.85-.26-1.29l-.09.1c.09.39.16.79.24,1.19Z"/><path class="cls-1" d="M374.53,88.34h-.76c.18-.17.36-.34.53-.52a2,2,0,0,0-.16-.14.57.57,0,0,0,.39.69Z"/><path class="cls-1" d="M365.14,87.81l.19.25-.22-.09A1.1,1.1,0,0,1,365.14,87.81Z"/><path class="cls-1" d="M341,243.53c-.32-.42-.63-.84-1-1.26h-.12c.37.42.74.85,1.12,1.27Z"/><path class="cls-1" d="M332.33,243.11l.2.17-.11-.07A.81.81,0,0,0,332.33,243.11Z"/><path class="cls-1" d="M371.19,114.65l-1.33-.47-.08.1,1.37.29Z"/><path class="cls-1" d="M368.58,82.17h0Z"/><polygon class="cls-1" points="278.04 266.18 277.89 266.3 278.13 266.29 278.04 266.18"/><path class="cls-1" d="M272.77,267.42,273,267c0,.09,0,.23,0,.27a1.93,1.93,0,0,1-.34.11Z"/><path class="cls-1" d="M278.13,266.29l-.86,1,1.17.31c.51-.28-.28.06.26-.14.09,0,0,0-.19.23l-.48-1.5A1,1,0,0,1,278.13,266.29Z"/><path class="cls-1" d="M278.44,267.59l.31.11-.24,0Z"/><path class="cls-1" d="M325.28,117l.23.65-.14-.56Z"/><path class="cls-1" d="M270.48,268.69l.45,1.31.08-.09-1.24-.3h0c.27-.28.54-.57.8-.87Z"/><path class="cls-1" d="M233.72,80.07l-1.16.74a1.66,1.66,0,0,0,.14.13l.93-1Z"/><path class="cls-1" d="M313.29,117.63l.21.15-.16,0A1.12,1.12,0,0,0,313.29,117.63Z"/><path class="cls-1" d="M270.93,270l.63.27-.55-.36Z"/><path class="cls-1" d="M279.27,270.11l.22.24c-.09.07-.18.2-.26.2s-.14-.15-.21-.24Z"/><path class="cls-1" d="M268.48,272.58l.87-.83-.17-.11c.66.32.66.65,0,1l.12-.12-.37.46Z"/><path class="cls-1" d="M270,271.79l.61.16-.61.53.17.13c-.52-.32-.52-.64,0-1Z"/><path class="cls-1" d="M282.09,272.64l.23-.06-.3,0Z"/><path class="cls-1" d="M267.54,273.52l.94-.94-.15-.09c.39,1,0,1.2-.88.88Z"/><path class="cls-1" d="M371.44,115.4l1.05,1.34.11-.11-1.05-1.34A1.14,1.14,0,0,0,371.44,115.4Z"/><path class="cls-1" d="M269.41,117.5l-.88.23.54-.57C269.18,117.27,269.3,117.38,269.41,117.5Z"/><path class="cls-1" d="M375.86,115.32l-1.05,1.15.14.13c.35-.37.69-.75,1-1.14Z"/><path class="cls-1" d="M269.17,274.18l-.81,1.18-.29-.52c.23-.61.52-1.07,1.23-.49Z"/><path class="cls-1" d="M281.1,273.71l.08.33-.14-.27Z"/><path class="cls-1" d="M326.87,116.84c-.53.07-1.05.15-1.58.21l.09.09c.49-.11,1-.2,1.49-.3Z"/><path class="cls-1" d="M265.33,275.64l1.42-.42-.17-.11.59.31-.44.5-1.41-.28Z"/><path class="cls-1" d="M268.36,275.36l-.77-.43-.2,1-.25-.47.41-.33-.09.09c.33-.56.65-.56,1,0Z"/><path class="cls-1" d="M270.09,75.37l-.32.49.31.12.05-.47Z"/><path class="cls-1" d="M267.39,275.91l-.14.65-.52-.64-.14.16c.32-.51.64-.51,1,0Z"/><path class="cls-1" d="M378.05,84.79l-.13.6c0-.21.09-.41.13-.62Z"/><path class="cls-1" d="M258.43,283.37c0-.54.05-1.08.07-1.62h0c0,.54-.05,1.09-.07,1.63Z"/><path class="cls-1" d="M340.22,84.44l.76.21-.66-.31Z"/><path class="cls-1" d="M268.81,280.93l-.89.86h0l1-.78Z"/><path class="cls-1" d="M354.66,252.91l1.31.65.11-.11c-.43-.21-.86-.42-1.31-.62Z"/><path class="cls-1" d="M315.62,116.09h0Z"/><path class="cls-1" d="M371,83.82l-.67.07.79,0Z"/><path class="cls-1" d="M268.92,281l1.51-.19,0-.05-1.58.17Z"/><path class="cls-1" d="M270.43,280.82l.31-1.55.28.22-.34-.09c-.1.45-.2.9-.28,1.36Z"/><path class="cls-1" d="M354,257.37l.07.3.24-.4-.26,0,.24.22C354.34,257.6,354.24,257.55,354,257.37Z"/><path class="cls-1" d="M353.92,258.85l.06-1.48,0-.06c0,.52-.09,1.05-.14,1.58l-.3-.22Q353.46,258.55,353.92,258.85Z"/><path class="cls-1" d="M270.74,279.27l.23.09-.15-.18-.15.23Z"/><path class="cls-1" d="M353.89,258.89l-1.6.16c.41.41-.11-.24.23.22.06.09,0,0-.3-.13l1.7-.29Z"/><path class="cls-1" d="M347.46,259.64l-.54,1.14h0l.66-1.05Z"/><path class="cls-1" d="M352.17,260.56,353,260l-.72-.88s.08-.09.07-.1c-.06.52-.11,1-.17,1.55-.41-.4.15.2-.24-.23C351.82,260.28,351.91,260.35,352.17,260.56Z"/><path class="cls-1" d="M367,119.34l.28,0-.16.08Z"/><path class="cls-1" d="M345.91,261.75l1-1s0,0,0,0l-1,1Z"/><path class="cls-1" d="M270.13,75.51l-.42,0,.25.18.14-.33A1,1,0,0,0,270.13,75.51Z"/><path class="cls-1" d="M352.13,260.6l-1.41.26V261l1.44-.47Z"/><path class="cls-1" d="M283.05,262.51l1.06-1.29s0,.06,0,.07l-.91-.24c0,.46,0,.92-.05,1.38Z"/><path class="cls-1" d="M371.24,82.5c-.08.43-.17.86-.24,1.3l.13.11c.08-.43.16-.87.23-1.31Z"/><path class="cls-1" d="M350.32,262.45c.14-.47.28-.94.41-1.41a1,1,0,0,1,0-.17c-.14.52-.28,1.06-.42,1.59l-.18-.26C350.07,262.11,350.13,262.19,350.32,262.45Z"/><path class="cls-1" d="M350.3,262.46l-.58,0h.58Z"/><path class="cls-1" d="M371.36,82.6l-.11-.09Z"/><path class="cls-1" d="M281.17,276.39l-.27.29c-.09-.09-.25-.19-.25-.29s.17-.18.26-.27Z"/><path class="cls-1" d="M280.45,153.77l1.12.86-.53.27c-.62-.23-1.1-.51-.48-1.22Z"/><path class="cls-1" d="M299.94,198.41l1-1-.06,0c-.3.35-.61.69-.93,1Z"/><polygon class="cls-1" points="318.04 196.66 318.31 196.55 318.29 196.82 318.04 196.66"/><path class="cls-1" d="M303.07,111.94l-.43-.81-.29.26.19-.34.4,1Z"/><path class="cls-1" d="M353.73,106.08l-.19-.24.22.08A1.1,1.1,0,0,1,353.73,106.08Z"/><path class="cls-1" d="M313,194.94c0,.56,0,1.12,0,1.69h0v-1.7Z"/><polygon class="cls-1" points="230.63 106.69 230.53 106.39 230.8 106.43 230.63 106.69"/><path class="cls-1" d="M294.34,111.21l-.6.87.12.1.56-.9Z"/><path class="cls-1" d="M281.57,154.63l0,.76-.17.12c-.48-.32-.48-.64,0-.95Z"/><path class="cls-1" d="M268,112.2l.76,0-.13-.4-.55.22Z"/><polygon class="cls-1" points="382.43 106.36 382.49 106.59 382.28 106.55 382.43 106.36"/><path class="cls-1" d="M236.2,111.34l.81.82.11-.11-.92,0,.16.16c-.46-.32-.46-.65,0-1Z"/><path class="cls-1" d="M280.55,161.05l.33-.58-.36-.11,0,.56Z"/><path class="cls-1" d="M283.45,205.34c.15-.5.29-1,.42-1.52l-.12-.14c-.1.54-.21,1.09-.31,1.65Z"/><path class="cls-1" d="M313,204.34l.49-1-.11-.11-.42,1.14c-.41-.41.12.19-.25-.25C312.67,204.05,312.77,204.12,313,204.34Z"/><path class="cls-1" d="M313.53,203.36l.61-1.14-.12-.09-.6,1.11Z"/><path class="cls-1" d="M286,203.53l.55-1.32-.13-.13c-.14.47-.29.95-.43,1.43Z"/><path class="cls-1" d="M314.21,201.84l.51-.83,0,0-.67,1.16.11.09a.56.56,0,0,0,.15-.52Z"/><path class="cls-1" d="M316.42,201l-1.71,0,0,0,1.62.07c-.36-.46.06.2-.24-.3C316.05,200.68,316.15,200.76,316.42,201Z"/><path class="cls-1" d="M314.29,201.71l-.81-1.45-.11.11.84,1.46Z"/><path class="cls-1" d="M288.61,201.82l.78-1.21-.13-.12-.69,1.28S288.61,201.82,288.61,201.82Z"/><path class="cls-1" d="M316.35,201.09a.46.46,0,0,1,.07-.07Z"/><path class="cls-1" d="M356.58,112.07l-.76-.45,0,.11.67.42Z"/><path class="cls-1" d="M296.66,199.34l-.05,0Z"/><path class="cls-1" d="M312,112l-.7-1.1h0l.57,1.21Z"/><path class="cls-1" d="M317.35,198.65c-.07-.09-.2-.18-.2-.26s.15-.15.24-.22c.07.08.2.17.2.25S317.44,198.57,317.35,198.65Z"/><path class="cls-1" d="M319.19,166.38l.66.09-.66-.09Z"/><polygon class="cls-1" points="354.89 110.33 354.65 110.21 354.75 110.43 354.89 110.33"/><path class="cls-1" d="M359.77,110.48l.47-.44-.33-.11-.1.37.34.17Z"/><path class="cls-1" d="M379.85,110.47l.64,0-.08-.34-.48.15Z"/><path class="cls-1" d="M295.71,172.5l1-.77-.08-.06-.89.83Z"/><path class="cls-1" d="M240.59,110.35l-.21.62-.3-.38.59-.15Z"/><path class="cls-1" d="M297.55,170.91l-.95.77s.1.08.09.06c.31-.25.64-.49,1-.74Z"/><path class="cls-1" d="M287.73,171.71l1.61.16.14-.13c-.55-.05-1.11-.1-1.68-.13Z"/><path class="cls-1" d="M298.33,169.91c-.25.34-.51.67-.77,1l.11.09c.25-.34.51-.68.77-1Z"/><path class="cls-1" d="M302.64,111.13l-.27-.13.16.06S302.64,111.13,302.64,111.13Z"/><path class="cls-1" d="M298.44,170l1.62-.21s0,0,0,0l-1.72.16Z"/><path class="cls-1" d="M311.34,110.92l-1-.93v0l1,.92Z"/><path class="cls-1" d="M355.82,111.62l-.92-1.29-.14.1c.34.42.69.85,1,1.29C355.78,111.73,355.82,111.62,355.82,111.62Z"/><path class="cls-1" d="M359.81,110.3l.21.24-.24-.07A1.22,1.22,0,0,1,359.81,110.3Z"/><path class="cls-1" d="M275.32,108l.24,0a.69.69,0,0,0-.13.11Z"/><path class="cls-1" d="M280.49,160.92l.41-.11-.28-.12a3.09,3.09,0,0,0-.07.35A1.34,1.34,0,0,1,280.49,160.92Z"/><path class="cls-1" d="M313,189.86l.25-.15-.15.22Z"/><path class="cls-1" d="M296.79,189.92l.65-.28-.11.46-.62-.29Z"/><path class="cls-1" d="M319.73,186.51l.57.47-.8.57.13.11a.61.61,0,0,1-.29-.52c0-.21,0-.32.08-.32Z"/><path class="cls-1" d="M365.5,108l.18.23a1.88,1.88,0,0,0-.18-.12S365.5,108,365.5,108Z"/><polygon class="cls-1" points="381.57 108.07 381.63 108.3 381.43 108.27 381.57 108.07"/><path class="cls-1" d="M234.08,111.83l-1.37-.62-.15.14,1.48.5Z"/><path class="cls-1" d="M300.53,161.42c.13.5.26,1,.38,1.49,0,0,0,0,0,0-.11-.52-.21-1.05-.3-1.58Z"/><path class="cls-1" d="M379.93,110.32l.11.27a1,1,0,0,0-.18-.13Z"/><path class="cls-1" d="M306.84,163.69l.1-.09Z"/><polygon class="cls-1" points="269.71 109.77 269.78 110.01 269.56 109.97 269.71 109.77"/><path class="cls-1" d="M289,137.8l1.08-.65-.12-.14-1,.68Z"/><path class="cls-1" d="M279.9,222.61l-.29-.1.2.48.13-.32Z"/><path class="cls-1" d="M280.06,97.22c-.07-.09-.21-.18-.2-.27s.16-.15.25-.23c.07.1.21.19.2.27S280.15,97.15,280.06,97.22Z"/><path class="cls-1" d="M280,221.16c0,.48-.08,1-.11,1.44a.31.31,0,0,0,0,.06c.05-.52.09-1,.14-1.56.35.45-.09-.23.21.27C280.35,221.47,280.26,221.4,280,221.16Z"/><path class="cls-1" d="M288.08,138.45c.3-.21.59-.41.88-.63,0,0-.08-.11-.08-.12-.26.23-.51.47-.76.71l.24.3C288.43,138.82,288.34,138.73,288.08,138.45Z"/><path class="cls-1" d="M357.17,96.29l-.21.14.22-.19S357.17,96.29,357.17,96.29Z"/><path class="cls-1" d="M296.73,220.21l-.09.08Z"/><path class="cls-1" d="M369.51,96.48c.4.42.79.85,1.18,1.28a.87.87,0,0,0,.09-.11l-1.15-1.26Z"/><polygon class="cls-1" points="280.08 221.09 280.34 221.17 280.01 221.16 280.08 221.09"/><path class="cls-1" d="M282.79,220.86l.35-1-.14-.15-.15,1.2S282.79,220.86,282.79,220.86Z"/><path class="cls-1" d="M283.85,218.48c-.29.41-.57.83-.85,1.25l.14.14.82-1.26A1.5,1.5,0,0,0,283.85,218.48Z"/><path class="cls-1" d="M255.81,97.58l.22.25c-.09.08-.18.21-.26.21s-.15-.16-.23-.24Z"/><path class="cls-1" d="M368.87,112.62l.92,1.65a.61.61,0,0,1,.07-.1c-.3-.47-.59-1-.89-1.43Z"/><path class="cls-1" d="M292.23,229.94l-.25-.1.16-.07A1.4,1.4,0,0,1,292.23,229.94Z"/><path class="cls-1" d="M290.45,229.62l.37.76-.35-.75Z"/><path class="cls-1" d="M358.86,113.86l-1.36-.37c.53-.21-.24,0,.31-.13.11,0,0,0-.28.19l1.22.4A.87.87,0,0,1,358.86,113.86Z"/><path class="cls-1" d="M307.11,135.92l-.25-.19.27.13Z"/><polygon class="cls-1" points="308.57 113.47 308.8 113.38 308.78 113.61 308.57 113.47"/><path class="cls-1" d="M292.61,136.41l.36-.67.26.42-.74.13Z"/><path class="cls-1" d="M382,93.65l.09.18-.05-.21a1.26,1.26,0,0,1-.07.16A.79.79,0,0,0,382,93.65Z"/><polygon class="cls-1" points="303.57 113.48 303.79 113.45 303.58 113.47 303.57 113.48"/><path class="cls-1" d="M275.29,225.65l-.89.93.07.07c-.35-1,0-1.22.93-.87Z"/><path class="cls-1" d="M290.39,95.06l-1.69.17s0,0,0,0l1.71-.17Z"/><path class="cls-1" d="M312.64,137.32l.27-.73-.35.65Z"/><path class="cls-1" d="M378.94,95.11l-.24-.19.29.14Z"/><path class="cls-1" d="M286.51,96.18l.05.18a.58.58,0,0,1-.14,0A1,1,0,0,1,286.51,96.18Z"/><path class="cls-1" d="M293.74,112.08l-1.34.8.1.07,1.35-.77Z"/><path class="cls-1" d="M272.2,112.54l-.55-.14.56.13Z"/><path class="cls-1" d="M268.06,112.05l.11.28-.18-.14Z"/><path class="cls-1" d="M283.26,145.15l-.52.43.63-.32Z"/><path class="cls-1" d="M300.77,211.4c.16-.49.31-1,.47-1.49l-.12-.12-.39,1.56Z"/><path class="cls-1" d="M281.37,148l.23-.23a1.59,1.59,0,0,0-.13.13Z"/><path class="cls-1" d="M237,112.16l1.33.58.06,0-1.28-.65Z"/><path class="cls-1" d="M278.29,208.07l-.8.87h0l.81-.87.12.29Z"/><path class="cls-1" d="M306.09,207.7l.22.26c-.09.07-.18.2-.26.19s-.15-.15-.22-.24Z"/><path class="cls-1" d="M279.21,207.17l-.92.9h0c.3-.3.6-.6.91-.89A0,0,0,0,1,279.21,207.17Z"/><path class="cls-1" d="M307.94,206.21l.2.67c-.05-.2-.1-.4-.17-.61Z"/><path class="cls-1" d="M280.17,206.23l-1,.94h0l.95-.93Z"/><path class="cls-1" d="M310.16,206.1l.09-.65c0,.07.07.17,0,.21a3.4,3.4,0,0,1-.25.31Z"/><path class="cls-1" d="M313,204.39l-.21-.16.25.11Z"/><path class="cls-1" d="M288.12,138.41l-1,1,.24.2-.24-.19c.32-.33.65-.65,1-1C288.08,138.45,288.12,138.41,288.12,138.41Z"/><path class="cls-1" d="M276.54,219.19q.18-.75.33-1.53a1.31,1.31,0,0,0-.11-.12c-.08.54-.15,1.1-.22,1.65Z"/><path class="cls-1" d="M303.55,138.58l-.62,1.06.11.13c.2-.36.41-.72.6-1.1Z"/><path class="cls-1" d="M369,112.74l-.19,0a.41.41,0,0,0,.1-.13Z"/><path class="cls-1" d="M285.81,218.29l.2-.26-.1.17Z"/><path class="cls-1" d="M286.38,140.63c.25-.39.49-.78.73-1.17h0c-.27.37-.55.73-.84,1.09Z"/><path class="cls-1" d="M357.5,113.49c-.3-.47-.6-.95-.91-1.42l-.13.08c.35.46.71.92,1.06,1.39C357.53,113.55,357.5,113.49,357.5,113.49Z"/><path class="cls-1" d="M288.33,216.11l-.27,0h.2Z"/><path class="cls-1" d="M302.07,140.53l1-.75-.11-.13-1,.73Z"/><path class="cls-1" d="M301.23,141.39c.28-.28.57-.56.85-.85l-.12-.15-.83.87Z"/><path class="cls-1" d="M302.94,112.06c.21.48.43,1,.64,1.42,0,0,0,0,0,0-.18-.5-.35-1-.52-1.52Z"/><path class="cls-1" d="M301.13,141.26l-1,.74.06.09c.36-.23.72-.45,1.07-.69Z"/><path class="cls-1" d="M352.18,103.35h.27l-.35.09Z"/><path class="cls-1" d="M316,141.93l.21.15-.17,0S316,141.93,316,141.93Z"/><path class="cls-1" d="M274.13,214.2l1.25-.58-.08-.09c-.41.2-.83.4-1.26.59Z"/><path class="cls-1" d="M299.19,143c.33-.28.66-.56,1-.86a.47.47,0,0,1-.06-.09c-.32.31-.62.62-.93.94Z"/><path class="cls-1" d="M315.53,211.39c1.94.74,2.76,1.55-.21,2.75l.26-2.81Z"/><path class="cls-1" d="M308.19,217.88l2.74,0Z"/><path class="cls-1" d="M306.73,220.05c-.21.15-.48.44-.61.39s-.45-.39-.67-.6a2,2,0,0,1,.75-.24C306.38,219.62,306.54,219.88,306.73,220.05Z"/><path class="cls-1" d="M318.2,213.18l0,2.06-.79,0c.3-.66.6-1.32.89-2Z"/><path class="cls-1" d="M318.6,217.39l-.61.42a2.31,2.31,0,0,1-.21-.89c0-.14.41-.23.63-.34C318.48,216.85,318.54,217.12,318.6,217.39Z"/><path class="cls-1" d="M300.76,221.5l-.73-.38a3.24,3.24,0,0,1,.9-.47c.16,0,.38.29.57.45C301.26,221.24,301,221.37,300.76,221.5Z"/><path class="cls-1" d="M310.79,218v-1l1.08.5Z"/><path class="cls-1" d="M310,222.25c-.37.22-.74.44-1.12.65,0,0-.13-.21-.21-.32l1.41-.24Z"/><path class="cls-1" d="M305.06,223.52l.43.35,0-.65-.52.22.36-.23C305.48,223.13,305.38,223.24,305.06,223.52Z"/><path class="cls-1" d="M300.23,234v.32c0-.07-.07-.15-.11-.23Z"/><path class="cls-1" d="M306.63,236.9l-1,1Z"/><path class="cls-1" d="M306.12,222.21l-1.05,1.31s-.05-.07-.06-.07c.34-.36.69-.71,1-1.07l-.26-.2Z"/><path class="cls-1" d="M306.05,222.38l-.13-.24.19.08A1.66,1.66,0,0,1,306.05,222.38Z"/><path class="cls-1" d="M310.06,227.35c0,.35,0,.71,0,1.07C310.05,228.06,310.06,227.7,310.06,227.35Z"/><path class="cls-1" d="M309.54,225.43l0-.24c0,.05.05.09.07.15Z"/><path class="cls-1" d="M310.82,169.32l.87-1.74,1.3-.32c.32.49-.09-.19.2.31.06.11,0,0-.24-.28,1.29,3.37,3.43,6.77-.4,9.94l-1.74-3.51Z"/><path class="cls-1" d="M315.67,168a3.9,3.9,0,0,1,.24.73c0,.08-.19.18-.29.28a4.15,4.15,0,0,1-.24-.73C315.37,168.23,315.57,168.12,315.67,168Z"/><path class="cls-1" d="M315.65,180.29l.15-.58-.3.07.21.54Z"/><path class="cls-1" d="M319.18,152.54l0,1c-.08-.06-.24-.15-.23-.18a6.81,6.81,0,0,1,.33-.73Z"/><path class="cls-1" d="M319.3,152.66l.74-.82.13.66-1,.05Z"/><path class="cls-1" d="M318.09,165.49l-.63,0,.3.56c.1-.23.19-.46.28-.7Z"/><path class="cls-1" d="M313,167.26l.29.1-.32-.07Z"/><path class="cls-1" d="M319.42,186.82l.21.84-1-1A1,1,0,0,0,319.42,186.82Z"/><path class="cls-1" d="M293.26,185.81l-.62-2.42.56-.17.82,2.37Z"/><path class="cls-1" d="M293.68,194l.86-2.47.64.11-.43,2.57Z"/><path class="cls-1" d="M294,189.65l-.43-1.59.64,0-.26,1.67-.27-.29C293.58,189.32,293.69,189.4,294,189.65Z"/><path class="cls-1" d="M292.5,197.57l-.29.33c-.1-.11-.27-.21-.27-.32s.19-.2.29-.29Z"/><path class="cls-1" d="M293.94,189.71l-.18-.22.23.16Z"/><path class="cls-1" d="M277,284.65l.92-.89L289.21,285l-.08,1Z"/><path class="cls-1" d="M329.12,192.68l.88,1.81v5.25q-1.31,2.65-2.6,5.29Q328.26,198.86,329.12,192.68Z"/><path class="cls-1" d="M324,211.05h-1l.69-.65Z"/><path class="cls-1" d="M275.4,225.78l-.93.87c-.51-.91-2.91-1.85,0-2.73Z"/><path class="cls-1" d="M313.41,228.42v-1l.69.31Z"/><path class="cls-1" d="M313,229.52l.4.52.18-.69-.55.25Z"/><path class="cls-1" d="M315.23,126.06l0-1Z"/><path class="cls-1" d="M305.72,145.15l-1-1Z"/><path class="cls-1" d="M301.86,195.78l-.15-.28.21.2Z"/><path class="cls-1" d="M281.43,154.56v.95l-1.53,1.06.66-2.89Z"/><path class="cls-1" d="M323.41,185.39l-.15-.17.2.13Z"/><path class="cls-1" d="M287.45,166.65l0,1.12Z"/><path class="cls-1" d="M263.22,97.86,263,98a1.41,1.41,0,0,0,.06-.22Z"/><path class="cls-1" d="M372.35,117.24l1,1Z"/><path class="cls-1" d="M271.54,81.32h.32l-.23.08Z"/><path class="cls-1" d="M234.46,80.23l.42-.45-.51.36Z"/><path class="cls-1" d="M243.27,118.25c-.32-.33-.64-.65-1-1C242.63,117.6,243,117.92,243.27,118.25Z"/><path class="cls-1" d="M234.48,112.07h1l-.32.71Z"/><path class="cls-1" d="M236.35,111.2c0,.32,0,.65,0,1h-1Z"/><path class="cls-1" d="M335.25,86.88l-1.06,1.06Z"/><path class="cls-1" d="M304.87,146.85h0Z"/><path class="cls-1" d="M270.17,271.64c0,.32,0,.64,0,1h-1v-1Z"/><path class="cls-1" d="M268.43,275.21h-1c0-.61,0-1.22,0-1.83.29-.3.58-.59.88-.88h1v1.86Z"/><path class="cls-1" d="M267.55,276.09h-1c0-.32,0-.65,0-1h1C267.55,275.44,267.55,275.76,267.55,276.09Z"/><path d="M309.27,197.7h25.27c7.47,0,11.64,1,15.11,3.47s5.56,7,5.56,12.16c0,7-3.13,11.55-9.64,14,5.73,1.83,7.73,4.87,8.16,12.51l.44,8.25c.17,3.82.69,5.12,2.34,7.55H343.74c-1.56-1.21-2-2.08-2.17-5l-.52-7.91c-.43-7.12-3.65-10.24-10.33-10.24H322v23.18H309.27Zm25.53,24.49c4.69,0,7.38-2.43,7.38-6.69s-2.6-6.69-7.38-6.69H322v13.38Z"/><path d="M383.78,233.83l-19.2-36.13h14.51l11,24.05,11.73-24.05h14.24L396.8,233.83v21.79h-13Z"/><path d="M420.94,197.7h14l7.65,26.4c0,.17.6,2.26,1.12,4.17l1.39,5,1.74,6.43c1.56-6.43,1.91-8.16,4.08-15.72l7.73-26.31h13.64L452.9,255.62H440.05Z"/><path d="M484.51,197.7h43.16v11.11H497.53V220.1h26.32v10.25H497.53v14.16h30.66v11.11H484.51Z"/><path class="cls-2" d="M285.63,145.54h8.78c5.9,0,9.46-1.65,11.89-5.64,1.91-3.21,2.87-7.21,2.87-12.25,0-4.86-.87-8.68-2.78-12a12.93,12.93,0,0,0-1-1.52l-19.75,25.36Z"/><path class="cls-2" d="M235.53,109.85H222.76v13.38h12.77c4.69,0,7.38-2.44,7.38-6.69S240.31,109.85,235.53,109.85Z"/><path class="cls-2" d="M295.27,109.85h-9.64v29.66l19.75-25.36C303.12,111.21,299.84,109.85,295.27,109.85Z"/><polygon class="cls-2" points="163.89 134.34 177 134.34 170.92 111.67 163.89 134.34"/><polygon points="117.6 120.53 96.33 120.53 96.33 98.73 83.3 98.73 83.3 156.66 96.33 156.66 96.33 131.65 117.6 131.65 117.6 156.66 130.63 156.66 130.63 98.73 117.6 98.73 117.6 120.53"/><path d="M163.11,98.74l-20.24,57.92H157L160.67,145h19.2L183,156.66h14.77L179.35,98.74Zm.78,35.6,7-22.66L177,134.34Z"/><path d="M254.9,149.11l-.44-8.25c-.43-7.65-2.43-10.69-8.16-12.51,6.51-2.43,9.64-6.95,9.64-14,0-5.21-2-9.56-5.56-12.16s-7.64-3.47-15.11-3.47H210v57.92h12.76V133.47h8.69c6.69,0,9.9,3.13,10.33,10.25l.52,7.9c.18,3,.61,3.83,2.17,5h12.77C255.59,154.23,255.07,152.93,254.9,149.11Zm-19.37-25.88H222.76V109.85h12.77c4.78,0,7.38,2.43,7.38,6.69S240.22,123.23,235.53,123.23Z"/><path d="M279.11,200.79l-7.59,9.75a12.88,12.88,0,0,1,1,1.52c1.91,3.3,2.78,7.12,2.78,12,0,5-.95,9-2.86,12.24-2.44,4-6,5.65-11.9,5.65h-8.77v-6l-13,16.73v.42H258.8c10.77,0,17.2-2.25,22.23-7.64,4.78-5.21,7.56-13.2,7.56-21.62,0-8.08-2.52-15.46-7.12-20.67A23.52,23.52,0,0,0,279.11,200.79Z"/><path d="M285.63,109.85h9.64c4.57,0,7.85,1.36,10.11,4.3l7.6-9.76c-4.77-4.12-10.73-5.65-20.75-5.65H272.61v57.5l13-16.73Z"/><line class="cls-3" x1="79" y1="178.86" x2="538.38" y2="177.12"/><line class="cls-3" x1="198.4" y1="267" x2="346.03" y2="100.27"/><text class="cls-4" transform="translate(338.93 163.44)">W<tspan class="cls-5" x="13.02" y="0">e</tspan><tspan class="cls-6" x="22.31" y="0">ig</tspan><tspan class="cls-7" x="36.69" y="0">h</tspan><tspan class="cls-6" x="45.93" y="0">tlifting</tspan></text><text class="cls-8" transform="translate(160.91 205.12)">J<tspan class="cls-9" x="8.55" y="0">o</tspan><tspan x="18.19" y="0">urnal</tspan></text></svg>