<svg id="Layer_1" data-name="Layer 1" xmlns="http://www.w3.org/2000/svg" viewBox="0 0 700 500"><defs><style>.cls-1,.cls-4,.cls-8{fill:#fff;}.cls-2,.cls-3{fill:none;}.cls-3{stroke:#fff;stroke-miterlimit:10;}.cls-4,.cls-8{font-size:14.76px;font-family:FoundationSans-Bold, Foundation Sans;font-weight:700;}.cls-4{letter-spacing:0.04em;}.cls-5{letter-spacing:0.06em;}.cls-6{letter-spacing:0.06em;}.cls-7{letter-spacing:0.06em;}.cls-8{letter-spacing:0.06em;}.cls-9{letter-spacing:0.06em;}</style></defs><title>hdryveWH</title><path class="cls-1" d="M309.27,197.7h25.27c7.47,0,11.64,1,15.11,3.47s5.56,7,5.56,12.16c0,7-3.13,11.55-9.64,14,5.73,1.83,7.73,4.87,8.16,12.51l.44,8.25c.17,3.82.69,5.12,2.34,7.55H343.74c-1.56-1.21-2-2.08-2.17-5l-.52-7.91c-.43-7.12-3.65-10.24-10.33-10.24H322v23.18H309.27Zm25.53,24.49c4.69,0,7.38-2.43,7.38-6.69s-2.6-6.69-7.38-6.69H322v13.38Z"/><path class="cls-1" d="M383.78,233.83l-19.2-36.13h14.51l11,24.05,11.73-24.05h14.24L396.8,233.83v21.79h-13Z"/><path class="cls-1" d="M420.94,197.7h14l7.65,26.4c0,.17.6,2.26,1.12,4.17l1.39,5,1.74,6.43c1.56-6.43,1.91-8.16,4.08-15.72l7.73-26.31h13.64L452.9,255.62H440.05Z"/><path class="cls-1" d="M484.51,197.7h43.16v11.11H497.53V220.1h26.32v10.25H497.53v14.16h30.66v11.11H484.51Z"/><path class="cls-2" d="M285.63,145.54h8.78c5.9,0,9.46-1.65,11.89-5.64,1.91-3.21,2.87-7.21,2.87-12.25,0-4.86-.87-8.68-2.78-12a12.93,12.93,0,0,0-1-1.52l-19.75,25.36Z"/><path class="cls-2" d="M235.53,109.85H222.76v13.38h12.77c4.69,0,7.38-2.44,7.38-6.69S240.31,109.85,235.53,109.85Z"/><path class="cls-2" d="M295.27,109.85h-9.64v29.66l19.75-25.36C303.12,111.21,299.84,109.85,295.27,109.85Z"/><polygon class="cls-2" points="163.89 134.34 177 134.34 170.92 111.67 163.89 134.34"/><polygon class="cls-1" points="117.6 120.53 96.33 120.53 96.33 98.73 83.3 98.73 83.3 156.66 96.33 156.66 96.33 131.65 117.6 131.65 117.6 156.66 130.63 156.66 130.63 98.73 117.6 98.73 117.6 120.53"/><path class="cls-1" d="M163.11,98.74l-20.24,57.92H157L160.67,145h19.2L183,156.66h14.77L179.35,98.74Zm.78,35.6,7-22.66L177,134.34Z"/><path class="cls-1" d="M254.9,149.11l-.44-8.25c-.43-7.65-2.43-10.69-8.16-12.51,6.51-2.43,9.64-6.95,9.64-14,0-5.21-2-9.56-5.56-12.16s-7.64-3.47-15.11-3.47H210v57.92h12.76V133.47h8.69c6.69,0,9.9,3.13,10.33,10.25l.52,7.9c.18,3,.61,3.83,2.17,5h12.77C255.59,154.23,255.07,152.93,254.9,149.11Zm-19.37-25.88H222.76V109.85h12.77c4.78,0,7.38,2.43,7.38,6.69S240.22,123.23,235.53,123.23Z"/><path class="cls-1" d="M279.11,200.79l-7.59,9.75a12.88,12.88,0,0,1,1,1.52c1.91,3.3,2.78,7.12,2.78,12,0,5-.95,9-2.86,12.24-2.44,4-6,5.65-11.9,5.65h-8.77v-6l-13,16.73v.42H258.8c10.77,0,17.2-2.25,22.23-7.64,4.78-5.21,7.56-13.2,7.56-21.62,0-8.08-2.52-15.46-7.12-20.67A23.52,23.52,0,0,0,279.11,200.79Z"/><path class="cls-1" d="M285.63,109.85h9.64c4.57,0,7.85,1.36,10.11,4.3l7.6-9.76c-4.77-4.12-10.73-5.65-20.75-5.65H272.61v57.5l13-16.73Z"/><line class="cls-3" x1="79" y1="178.86" x2="538.38" y2="177.12"/><line class="cls-3" x1="198.4" y1="267" x2="346.03" y2="100.27"/><text class="cls-4" transform="translate(338.93 163.44)">W<tspan class="cls-5" x="13.02" y="0">e</tspan><tspan class="cls-6" x="22.31" y="0">ig</tspan><tspan class="cls-7" x="36.69" y="0">h</tspan><tspan class="cls-6" x="45.93" y="0">tlifting</tspan></text><text class="cls-8" transform="translate(160.91 205.12)">J<tspan class="cls-9" x="8.55" y="0">o</tspan><tspan x="18.19" y="0">urnal</tspan></text></svg>